<svg xmlns="http://www.w3.org/2000/svg" xmlns:xlink="http://www.w3.org/1999/xlink" fill="none" version="1.1" width="200" height="200" viewBox="0 0 200 200"><defs><clipPath id="master_svg0_43_608"><rect x="0" y="0" width="200" height="200" rx="0"/></clipPath></defs><g style="opacity:0.4000000059604645;mix-blend-mode:passthrough" clip-path="url(#master_svg0_43_608)"><g style="mix-blend-mode:passthrough"></g><g style="mix-blend-mode:passthrough"><g style="opacity:0.10000000149011612;mix-blend-mode:passthrough"><path d="M179.156,156.5935Q124.73,159.7449,81.2776,138.5437Q37.8528,117.3561,6.5839,72.4242L39.4161,49.5758Q64.74260000000001,85.9687,98.8178,102.5946Q132.865,119.20689999999999,176.844,116.66040000000001L179.156,156.5935ZM198,136.6269Q198,137.11790000000002,197.976,137.60829999999999Q197.952,138.0987,197.904,138.5873Q197.856,139.0759,197.783,139.5615Q197.711,140.0472,197.616,140.52870000000001Q197.52,141.0103,197.401,141.4865Q197.281,141.96280000000002,197.139,142.43259999999998Q196.996,142.9024,196.831,143.3647Q196.665,143.827,196.478,144.2806Q196.29,144.7342,196.08,145.178Q195.87,145.6218,195.638,146.0548Q195.407,146.4878,195.155,146.909Q194.902,147.33010000000002,194.629,147.73829999999998Q194.357,148.1466,194.064,148.5409Q193.772,148.93529999999998,193.46,149.3148Q193.149,149.6943,192.819,150.0581Q192.489,150.4219,192.142,150.76909999999998Q191.795,151.1162,191.431,151.4459Q191.067,151.7757,190.688,152.08710000000002Q190.308,152.3986,189.914,152.6911Q189.52,152.9835,189.111,153.2563Q188.703,153.5291,188.282,153.7815Q187.861,154.03390000000002,187.428,154.2653Q186.995,154.4968,186.551,154.7067Q186.107,154.91660000000002,185.654,155.1045Q185.2,155.2924,184.738,155.45780000000002Q184.275,155.6232,183.806,155.76569999999998Q183.336,155.9082,182.86,156.0275Q182.383,156.14679999999998,181.902,156.24259999999998Q181.42,156.33839999999998,180.935,156.41039999999998Q180.449,156.48250000000002,179.96,156.5306Q179.472,156.5787,178.981,156.6028Q178.491,156.6269,178,156.6269Q177.509,156.6269,177.019,156.6028Q176.528,156.5787,176.04,156.5306Q175.551,156.48250000000002,175.065,156.41039999999998Q174.58,156.33839999999998,174.098,156.24259999999998Q173.617,156.14679999999998,173.14,156.0275Q172.664,155.9082,172.194,155.76569999999998Q171.724,155.6232,171.262,155.45780000000002Q170.8,155.2924,170.346,155.1045Q169.893,154.91660000000002,169.449,154.7067Q169.005,154.4968,168.572,154.2653Q168.139,154.03390000000002,167.718,153.7815Q167.297,153.5291,166.889,153.2563Q166.48,152.9835,166.086,152.6911Q165.692,152.3986,165.312,152.08710000000002Q164.933,151.7757,164.569,151.4459Q164.205,151.1162,163.858,150.76909999999998Q163.511,150.4219,163.181,150.0581Q162.851,149.6943,162.54,149.3148Q162.228,148.93529999999998,161.936,148.5409Q161.643,148.1466,161.371,147.73829999999998Q161.098,147.33010000000002,160.845,146.909Q160.593,146.4878,160.362,146.0548Q160.13,145.6218,159.92,145.178Q159.71,144.7342,159.522,144.2806Q159.335,143.827,159.169,143.3647Q159.004,142.9024,158.861,142.43259999999998Q158.719,141.96280000000002,158.599,141.4865Q158.48,141.0103,158.384,140.52870000000001Q158.289,140.0472,158.216,139.5615Q158.144,139.0759,158.096,138.5873Q158.048,138.0987,158.024,137.60829999999999Q158,137.11790000000002,158,136.6269Q158,136.1359,158.024,135.6456Q158.048,135.15519999999998,158.096,134.66660000000002Q158.144,134.178,158.216,133.6923Q158.289,133.20659999999998,158.384,132.7251Q158.48,132.24360000000001,158.599,131.7673Q158.719,131.2911,158.861,130.8212Q159.004,130.3514,159.169,129.88909999999998Q159.335,129.42680000000001,159.522,128.9733Q159.71,128.5197,159.92,128.07580000000002Q160.13,127.632,160.362,127.199Q160.593,126.766,160.845,126.3449Q161.098,125.9237,161.371,125.5155Q161.643,125.1073,161.936,124.71289999999999Q162.228,124.3186,162.54,123.9391Q162.851,123.5595,163.181,123.1957Q163.511,122.832,163.858,122.4848Q164.205,122.13759999999999,164.569,121.80789999999999Q164.933,121.4782,165.312,121.16669999999999Q165.692,120.8552,166.086,120.56280000000001Q166.48,120.27029999999999,166.889,119.9975Q167.297,119.7248,167.718,119.47229999999999Q168.139,119.2199,168.572,118.9885Q169.005,118.757,169.449,118.5471Q169.893,118.3372,170.346,118.1493Q170.8,117.9614,171.262,117.79599999999999Q171.724,117.6306,172.194,117.4881Q172.664,117.34559999999999,173.14,117.22630000000001Q173.617,117.107,174.098,117.0112Q174.58,116.9154,175.065,116.8434Q175.551,116.7714,176.04,116.72319999999999Q176.528,116.6751,177.019,116.65100000000001Q177.509,116.6269,178,116.6269Q178.491,116.6269,178.981,116.65100000000001Q179.472,116.6751,179.96,116.72319999999999Q180.449,116.7714,180.935,116.8434Q181.42,116.9154,181.902,117.0112Q182.383,117.107,182.86,117.22630000000001Q183.336,117.34559999999999,183.806,117.4881Q184.275,117.6306,184.738,117.79599999999999Q185.2,117.9614,185.654,118.1493Q186.107,118.3372,186.551,118.5471Q186.995,118.757,187.428,118.9885Q187.861,119.2199,188.282,119.47229999999999Q188.703,119.7248,189.111,119.9975Q189.52,120.27029999999999,189.914,120.56280000000001Q190.308,120.8552,190.688,121.16669999999999Q191.067,121.4782,191.431,121.80789999999999Q191.795,122.13759999999999,192.142,122.4848Q192.489,122.832,192.819,123.1957Q193.149,123.5595,193.46,123.9391Q193.772,124.3186,194.064,124.71289999999999Q194.357,125.1073,194.629,125.5155Q194.902,125.9237,195.155,126.3449Q195.407,126.766,195.638,127.199Q195.87,127.632,196.08,128.07580000000002Q196.29,128.5197,196.478,128.9733Q196.665,129.42680000000001,196.831,129.88909999999998Q196.996,130.3514,197.139,130.8212Q197.281,131.2911,197.401,131.7673Q197.52,132.24360000000001,197.616,132.7251Q197.711,133.20659999999998,197.784,133.6923Q197.856,134.178,197.904,134.66660000000002Q197.952,135.15519999999998,197.976,135.6456Q198,136.1359,198,136.6269ZM43,61Q43,61.490972,42.975899999999996,61.981353Q42.9518,62.47173,42.9037,62.96034Q42.855599999999995,63.448949999999996,42.783500000000004,63.93461Q42.7115,64.42027,42.615700000000004,64.90181Q42.5199,65.38334,42.4006,65.8596Q42.2813,66.33586,42.1388,66.80569Q41.996300000000005,67.27552,41.8309,67.7378Q41.6655,68.20007,41.477599999999995,68.65367Q41.289699999999996,69.10727,41.0798,69.5511Q40.8699,69.99493,40.638400000000004,70.42793Q40.407,70.86093,40.1546,71.2821Q39.9022,71.7032,39.629400000000004,72.1114Q39.3566,72.5196,39.064099999999996,72.914Q38.771699999999996,73.3083,38.4602,73.6879Q38.1487,74.06739999999999,37.819,74.4312Q37.4893,74.795,37.1421,75.1421Q36.795,75.4893,36.431200000000004,75.819Q36.0674,76.1487,35.6879,76.4602Q35.3083,76.7717,34.914,77.0641Q34.5196,77.3566,34.1114,77.6294Q33.7032,77.9022,33.2821,78.1546Q32.860929999999996,78.407,32.42793,78.6384Q31.99493,78.8699,31.551099999999998,79.0798Q31.10727,79.2897,30.653669999999998,79.4776Q30.20007,79.66550000000001,29.7378,79.8309Q29.27552,79.9963,28.80569,80.1388Q28.33586,80.2813,27.8596,80.4006Q27.38334,80.5199,26.90181,80.6157Q26.42027,80.7115,25.93461,80.7835Q25.44895,80.8556,24.96034,80.9037Q24.47173,80.95179999999999,23.981353,80.9759Q23.490972,81,23,81Q22.509028,81,22.018647,80.9759Q21.52827,80.95179999999999,21.03966,80.9037Q20.55105,80.8556,20.06539,80.7835Q19.57973,80.7115,19.09819,80.6157Q18.61666,80.5199,18.1404,80.4006Q17.66414,80.2813,17.19431,80.1388Q16.72448,79.9963,16.2622,79.8309Q15.79993,79.66550000000001,15.34633,79.4776Q14.89273,79.2897,14.4489,79.0798Q14.00507,78.8699,13.57207,78.6384Q13.13907,78.407,12.7179,78.1546Q12.2968,77.9022,11.8886,77.6294Q11.4804,77.3566,11.086,77.0641Q10.6917,76.7717,10.3121,76.4602Q9.9326,76.1487,9.5688,75.819Q9.205,75.4893,8.8579,75.1421Q8.5107,74.795,8.181,74.4312Q7.8513,74.06739999999999,7.5398,73.6879Q7.228300000000001,73.3083,6.9359,72.914Q6.6434,72.5196,6.3706,72.1114Q6.097799999999999,71.7032,5.8454000000000015,71.2821Q5.593,70.86093,5.361599999999999,70.42793Q5.130099999999999,69.99493,4.920200000000001,69.5511Q4.7103,69.10727,4.522400000000001,68.65367Q4.3344999999999985,68.20007,4.1691,67.7378Q4.0036999999999985,67.27552,3.8612,66.80569Q3.7186999999999983,66.33586,3.5993999999999993,65.8596Q3.4801,65.38334,3.3842999999999996,64.90181Q3.288499999999999,64.42027,3.2165,63.93461Q3.144400000000001,63.448949999999996,3.0962999999999994,62.96034Q3.0482000000000014,62.47173,3.0241000000000007,61.981353Q3,61.490972,3,61Q3,60.509028,3.0241000000000007,60.018647Q3.0482000000000014,59.52827,3.0962999999999994,59.03966Q3.144400000000001,58.551050000000004,3.2165,58.06539Q3.288499999999999,57.57973,3.3842999999999996,57.09819Q3.4801,56.61666,3.5993999999999993,56.1404Q3.7186999999999983,55.66414,3.8612,55.19431Q4.0036999999999985,54.72448,4.1691,54.2622Q4.3344999999999985,53.79993,4.522400000000001,53.34633Q4.7103,52.89273,4.920200000000001,52.4489Q5.130099999999999,52.00507,5.361599999999999,51.57207Q5.593,51.139070000000004,5.8454000000000015,50.7179Q6.097799999999999,50.2968,6.3706,49.8886Q6.6434,49.4804,6.9359,49.086Q7.228300000000001,48.6917,7.5398,48.3121Q7.8513,47.9326,8.181,47.568799999999996Q8.5107,47.205,8.8579,46.8579Q9.205,46.5107,9.5688,46.181Q9.9326,45.8513,10.3121,45.5398Q10.6917,45.228300000000004,11.086,44.935900000000004Q11.4804,44.6434,11.8886,44.370599999999996Q12.2968,44.0978,12.7179,43.8454Q13.13907,43.593,13.57207,43.361599999999996Q14.00507,43.1301,14.4489,42.9202Q14.89273,42.710300000000004,15.34633,42.522400000000005Q15.79993,42.3345,16.2622,42.1691Q16.72448,42.003699999999995,17.19431,41.8612Q17.66414,41.7187,18.1404,41.5994Q18.61666,41.4801,19.09819,41.384299999999996Q19.57973,41.2885,20.06539,41.216499999999996Q20.55105,41.144400000000005,21.03966,41.0963Q21.52827,41.0482,22.018647,41.024100000000004Q22.509028,41,23,41Q23.490972,41,23.981353,41.024100000000004Q24.47173,41.0482,24.96034,41.0963Q25.44895,41.144400000000005,25.93461,41.216499999999996Q26.42027,41.2885,26.90181,41.384299999999996Q27.38334,41.4801,27.8596,41.5994Q28.33586,41.7187,28.80569,41.8612Q29.27552,42.003699999999995,29.7378,42.1691Q30.20007,42.3345,30.653669999999998,42.522400000000005Q31.10727,42.710300000000004,31.551099999999998,42.9202Q31.99493,43.1301,32.42793,43.361599999999996Q32.860929999999996,43.593,33.2821,43.8454Q33.7032,44.0978,34.1114,44.370599999999996Q34.5196,44.6434,34.914,44.935900000000004Q35.3083,45.228300000000004,35.6879,45.5398Q36.0674,45.8513,36.431200000000004,46.181Q36.795,46.5107,37.1421,46.8579Q37.4893,47.205,37.819,47.568799999999996Q38.1487,47.9326,38.4602,48.3121Q38.771699999999996,48.6917,39.064099999999996,49.086Q39.3566,49.4804,39.629400000000004,49.8886Q39.9022,50.2968,40.1546,50.7179Q40.407,51.139070000000004,40.638400000000004,51.57207Q40.8699,52.00507,41.0798,52.4489Q41.289699999999996,52.89273,41.477599999999995,53.34633Q41.6655,53.79993,41.8309,54.2622Q41.996300000000005,54.72448,42.1388,55.19431Q42.2813,55.66414,42.4006,56.1404Q42.5199,56.61666,42.615700000000004,57.09819Q42.7115,57.57973,42.783500000000004,58.06539Q42.855599999999995,58.551050000000004,42.9037,59.03966Q42.9518,59.52827,42.975899999999996,60.018647Q43,60.509028,43,61Z" fill="#FF7F45" fill-opacity="1"/></g><g style="mix-blend-mode:passthrough"><path d="M178.06,138.9991Q76.9673,142.03199999999998,24.34939,65.12937L27.65061,62.87063Q79.0327,137.9683,177.94,135.0009L178.06,138.9991ZM180,137Q180,137.0983,179.99,137.196Q179.981,137.2938,179.962,137.3902Q179.942,137.4865,179.914,137.5806Q179.885,137.6746,179.848,137.7654Q179.81,137.8561,179.764,137.9428Q179.717,138.0294,179.663,138.1111Q179.608,138.1928,179.546,138.2688Q179.484,138.3447,179.414,138.4142Q179.345,138.4837,179.269,138.546Q179.193,138.60840000000002,179.111,138.66289999999998Q179.029,138.7175,178.943,138.7638Q178.856,138.8102,178.765,138.8477Q178.675,138.8853,178.581,138.9139Q178.487,138.94240000000002,178.39,138.9616Q178.294,138.9807,178.196,138.9904Q178.098,139,178,139Q177.902,139,177.804,138.9904Q177.706,138.9807,177.61,138.9616Q177.513,138.94240000000002,177.419,138.9139Q177.325,138.8853,177.235,138.8477Q177.144,138.8102,177.057,138.7638Q176.971,138.7175,176.889,138.66289999999998Q176.807,138.60840000000002,176.731,138.546Q176.655,138.4837,176.586,138.4142Q176.516,138.3447,176.454,138.2688Q176.392,138.1928,176.337,138.1111Q176.282,138.0294,176.236,137.9428Q176.19,137.8561,176.152,137.7654Q176.115,137.6746,176.086,137.5806Q176.058,137.4865,176.038,137.3902Q176.019,137.2938,176.01,137.196Q176,137.0983,176,137Q176,136.9017,176.01,136.804Q176.019,136.7062,176.038,136.6098Q176.058,136.5135,176.086,136.4194Q176.115,136.3254,176.152,136.2346Q176.19,136.1439,176.236,136.0572Q176.282,135.9706,176.337,135.8889Q176.392,135.8072,176.454,135.7312Q176.516,135.6553,176.586,135.5858Q176.655,135.5163,176.731,135.454Q176.807,135.39159999999998,176.889,135.33710000000002Q176.971,135.2825,177.057,135.2362Q177.144,135.1898,177.235,135.1522Q177.325,135.1146,177.419,135.0861Q177.513,135.05759999999998,177.61,135.0384Q177.706,135.0193,177.804,135.0096Q177.902,135,178,135Q178.098,135,178.196,135.0096Q178.294,135.0193,178.39,135.0384Q178.487,135.05759999999998,178.581,135.0861Q178.675,135.1146,178.765,135.1522Q178.856,135.1898,178.943,135.2362Q179.029,135.2825,179.111,135.33710000000002Q179.193,135.39159999999998,179.269,135.454Q179.345,135.5163,179.414,135.5858Q179.484,135.6553,179.546,135.7312Q179.608,135.8072,179.663,135.8889Q179.717,135.9706,179.764,136.0572Q179.81,136.1439,179.848,136.2346Q179.885,136.3254,179.914,136.4194Q179.942,136.5135,179.962,136.6098Q179.981,136.7062,179.99,136.804Q180,136.9017,180,137ZM28,64Q28,64.0982537,27.99037,64.196034Q27.98074,64.293815,27.961570000000002,64.390181Q27.9424,64.486546,27.91388,64.580569Q27.88536,64.674592,27.84776,64.765367Q27.81016,64.856141,27.763840000000002,64.942793Q27.71753,65.02945,27.66294,65.11114Q27.60835,65.19284,27.54602,65.26879Q27.48369,65.34474,27.41421,65.41421Q27.34474,65.48369,27.26879,65.54602Q27.19284,65.60835,27.11114,65.66294Q27.02945,65.71753,26.942793,65.76384Q26.856141,65.81016,26.765367,65.84776Q26.674592,65.88536,26.580569,65.91388Q26.486546,65.9424,26.390181,65.96157Q26.293815,65.98074,26.196034,65.99037Q26.0982537,66,26,66Q25.9017463,66,25.803966,65.99037Q25.706185,65.98074,25.609819,65.96157Q25.513454,65.9424,25.419431,65.91388Q25.325408,65.88536,25.234633,65.84776Q25.143859,65.81016,25.057207,65.76384Q24.97055,65.71753,24.88886,65.66294Q24.80716,65.60835,24.73121,65.54602Q24.65526,65.48369,24.58579,65.41421Q24.51631,65.34474,24.45398,65.26879Q24.39165,65.19284,24.33706,65.11114Q24.28247,65.02945,24.236159999999998,64.942793Q24.18984,64.856141,24.15224,64.765367Q24.11464,64.674592,24.08612,64.580569Q24.0576,64.486546,24.038429999999998,64.390181Q24.01926,64.293815,24.00963,64.196034Q24,64.0982537,24,64Q24,63.9017463,24.00963,63.803966Q24.01926,63.706185,24.038429999999998,63.609819Q24.0576,63.513454,24.08612,63.419431Q24.11464,63.325408,24.15224,63.234633Q24.18984,63.143859,24.236159999999998,63.057207Q24.28247,62.97055,24.33706,62.88886Q24.39165,62.80716,24.45398,62.73121Q24.51631,62.65526,24.58579,62.58579Q24.65526,62.51631,24.73121,62.45398Q24.80716,62.39165,24.88886,62.33706Q24.97055,62.28247,25.057207,62.23616Q25.143859,62.18984,25.234633,62.15224Q25.325408,62.11464,25.419431,62.08612Q25.513454,62.0576,25.609819,62.03843Q25.706185,62.01926,25.803966,62.00963Q25.9017463,62,26,62Q26.0982537,62,26.196034,62.00963Q26.293815,62.01926,26.390181,62.03843Q26.486546,62.0576,26.580569,62.08612Q26.674592,62.11464,26.765367,62.15224Q26.856141,62.18984,26.942793,62.23616Q27.02945,62.28247,27.11114,62.33706Q27.19284,62.39165,27.26879,62.45398Q27.34474,62.51631,27.41421,62.58579Q27.48369,62.65526,27.54602,62.73121Q27.60835,62.80716,27.66294,62.88886Q27.71753,62.97055,27.763840000000002,63.057207Q27.81016,63.143859,27.84776,63.234633Q27.88536,63.325408,27.91388,63.419431Q27.9424,63.513454,27.961570000000002,63.609819Q27.98074,63.706185,27.99037,63.803966Q28,63.9017463,28,64Z" fill="#FFDECF" fill-opacity="1"/></g><g style="mix-blend-mode:passthrough"><ellipse cx="26" cy="64" rx="6" ry="6" fill="#FFDECF" fill-opacity="1"/></g><g style="mix-blend-mode:passthrough"><ellipse cx="179" cy="137" rx="6" ry="6" fill="#FFDECF" fill-opacity="1"/></g></g></g></svg>