<?xml version="1.0" encoding="UTF-8"?>
<svg width="240px" height="240px" viewBox="0 0 240 240" version="1.1" xmlns="http://www.w3.org/2000/svg" xmlns:xlink="http://www.w3.org/1999/xlink">
    <defs>
        <rect x="0" y="0" width="240" height="240"></rect>
    </defs>
    <g stroke="none" stroke-width="1" fill="none" fill-rule="evenodd" opacity="0.06">
        <g transform="translate(-592.000000, -232.000000)">
            <g transform="translate(320.000000, 160.000000)">
                <g transform="translate(0.000000, 48.000000)">
                    <g transform="translate(272.000000, 24.000000)">
                        <mask fill="white">
                            <use xlink:href="#path-1"></use>
                        </mask>
                        <use fill-opacity="0.01" fill="#FFFFFF" fill-rule="nonzero" xlink:href="#path-1"></use>
                        <g mask="url(#mask-2)">
                            <g transform="translate(37.000000, 31.000000)">
                                <g stroke="none" stroke-width="1" fill="none">
                                    <path d="M27.3469388,36.6716418 L39.6530612,36.6716418 C54.7563585,36.6716418 67,48.833459 67,63.8358209 L67,96.4328358 C67,111.435198 54.7563585,123.597015 39.6530612,123.597015 L27.3469388,123.597015 C12.2436415,123.597015 0,111.435198 0,96.4328358 L0,63.8358209 C0,48.833459 12.2436415,36.6716418 27.3469388,36.6716418 Z" stroke="#F9F9F9" stroke-width="4" fill="#909399"></path>
                                    <path d="M20.5102041,114.089552 C25.7963581,114.089552 30.0816327,118.346188 30.0816327,123.597015 L30.0816327,172.492537 C30.0816327,177.743364 25.7963581,182 20.5102041,182 C15.22405,182 10.9387755,177.743364 10.9387755,172.492537 L10.9387755,123.597015 C10.9387755,118.346188 15.22405,114.089552 20.5102041,114.089552 Z" fill="#909399"></path>
                                    <rect fill="#909399" x="36.9183673" y="114.089552" width="19.1428571" height="67.9104478" rx="9.57142857"></rect>
                                    <ellipse stroke="#F9F9F9" stroke-width="4" fill="#909399" cx="34.1836735" cy="20.3731343" rx="22.5102041" ry="22.3731343"></ellipse>
                                </g>
                                <g stroke="none" stroke-width="1" fill="none" transform="translate(108.000000, 0.000000)">
                                    <path d="M27.3469388,36.6716418 L39.6530612,36.6716418 C54.7563585,36.6716418 67,48.833459 67,63.8358209 L67,96.4328358 C67,111.435198 54.7563585,123.597015 39.6530612,123.597015 L27.3469388,123.597015 C12.2436415,123.597015 0,111.435198 0,96.4328358 L0,63.8358209 C0,48.833459 12.2436415,36.6716418 27.3469388,36.6716418 Z" stroke="#F9F9F9" stroke-width="4" fill="#909399"></path>
                                    <path d="M20.5102041,114.089552 C25.7963581,114.089552 30.0816327,118.346188 30.0816327,123.597015 L30.0816327,172.492537 C30.0816327,177.743364 25.7963581,182 20.5102041,182 C15.22405,182 10.9387755,177.743364 10.9387755,172.492537 L10.9387755,123.597015 C10.9387755,118.346188 15.22405,114.089552 20.5102041,114.089552 Z" fill="#909399"></path>
                                    <rect fill="#909399" x="36.9183673" y="114.089552" width="19.1428571" height="67.9104478" rx="9.57142857"></rect>
                                    <ellipse stroke="#F9F9F9" stroke-width="4" fill="#909399" cx="34.1836735" cy="20.3731343" rx="22.5102041" ry="22.3731343"></ellipse>
                                </g>
                                <path d="M80.3469388,51 L92.6530612,51 C107.756358,51 120,63.1722584 120,78.1875 L120,110.8125 C120,125.827742 107.756358,138 92.6530612,138 L80.3469388,138 C65.2436415,138 53,125.827742 53,110.8125 L53,78.1875 C53,63.1722584 65.2436415,51 80.3469388,51 Z" stroke="#F9F9F9" stroke-width="4" fill="#909399"></path>
                                <path d="M75.5,129 C80.7467051,129 85,133.262249 85,138.52 L85,187.48 C85,192.737751 80.7467051,197 75.5,197 C70.2532949,197 66,192.737751 66,187.48 L66,138.52 C66,133.262249 70.2532949,129 75.5,129 Z" stroke="none" fill="#909399"></path>
                                <rect stroke="none" fill="#909399" x="90" y="129" width="19" height="68" rx="9.5"></rect>
                                <circle stroke="#F9F9F9" stroke-width="4" fill="#909399" cx="88" cy="35" r="22"></circle>
                            </g>
                        </g>
                    </g>
                </g>
            </g>
        </g>
    </g>
</svg>