<?xml version="1.0" encoding="UTF-8"?>
<svg width="40px" height="40px" viewBox="0 0 40 40" version="1.1" xmlns="http://www.w3.org/2000/svg" xmlns:xlink="http://www.w3.org/1999/xlink">
    <title>section</title>
    <defs>
        <rect id="path-1" x="0" y="0" width="40" height="40"></rect>
    </defs>
    <g id="1440" stroke="none" stroke-width="1" fill="none" fill-rule="evenodd">
        <g id="menu" transform="translate(-28.000000, -124.000000)">
            <g id="logo" transform="translate(28.000000, 124.000000)">
                <mask id="mask-2" fill="white">
                    <use xlink:href="#path-1"></use>
                </mask>
                <g id="ma s k"></g>
                <g mask="url(#mask-2)" fill="#EF814E" fill-rule="nonzero" id="Fill-1-path">
                    <g transform="translate(5.324841, 1.276127)">
                        <path d="M29.3503184,15.1007388 L22.8956942,13.9764585 L22.8956942,9.74838221 C22.8956942,8.69910829 22.0461656,7.84957965 20.9968917,7.84957965 L8.35342672,7.84957965 C7.3041528,7.84957965 6.45462416,8.69910829 6.45462416,9.74838221 L6.45462416,13.3755923 L29.3503184,17.3745732 L29.3503184,27.1824713 C29.3503184,28.6858598 28.5309554,30.0669555 27.212637,30.7884841 L15.3763058,37.2643057 C14.9254522,37.5105224 14.3792101,37.5105224 13.9283566,37.2634904 L2.13278976,30.7901147 C0.81691712,30.0677707 0,28.6874904 0,27.1865478 L0,19.9647388 L6.45462416,21.0890192 L6.45462416,24.612688 C6.45462416,25.0105478 6.67312096,25.3733504 7.01146496,25.5535286 L14.4175286,29.7750828 C14.5626496,29.858242 14.7411974,29.8590572 14.8863184,29.775898 L22.3241782,25.5592356 C22.6763821,25.3741656 22.8956942,25.0105478 22.8956942,24.6118726 L22.8956942,21.6760254 L0,17.6892739 L0,9.49238221 C0,5.70456045 2.69289168,2.37819107 6.40244576,1.58328662 L6.4008152,1.50257325 L6.4008152,0 L11.9064458,0 L11.9064458,1.39495541 L17.4438726,1.39495541 L17.4438726,0 L22.9495032,0 L22.9495032,1.50257325 L22.9478726,1.58328662 C26.6574267,2.37819107 29.3503184,5.70456045 29.3503184,9.49238221 L29.3503184,15.1007388 Z"></path>
                    </g>
                </g>
            </g>
        </g>
    </g>
</svg>