<svg xmlns="http://www.w3.org/2000/svg" xmlns:xlink="http://www.w3.org/1999/xlink" fill="none" version="1.1" width="658" height="372" viewBox="0 0 658 372"><defs><mask id="master_svg0_1015_1100"><g><rect x="63" y="109" width="561" height="188" rx="0" fill="#FFFFFF" fill-opacity="1"/></g></mask><linearGradient x1="0.5" y1="0" x2="0.5" y2="1" id="master_svg1_1015_1206"><stop offset="0%" stop-color="#F25430" stop-opacity="1"/><stop offset="100%" stop-color="#FFFFFF" stop-opacity="0"/></linearGradient><linearGradient x1="0" y1="1" x2="1" y2="1" id="master_svg2_1015_1207"><stop offset="0%" stop-color="#FA8D5E" stop-opacity="1"/><stop offset="5.366726219654083%" stop-color="#F35430" stop-opacity="1"/><stop offset="94.58141326904297%" stop-color="#F25430" stop-opacity="1"/><stop offset="100%" stop-color="#F9885A" stop-opacity="1"/></linearGradient></defs><g><g><path d="M30.7666,-3.05668e-15L627.233,-5.7066e-16C637.932,3.3157e-16,641.811,1.11391,645.722,3.20559C649.633,5.29728,652.703,8.36674,654.794,12.2779C656.886,16.189,658,20.0684,658,30.7666L658,341.233C658,351.932,656.886,355.811,654.794,359.722C652.703,363.633,649.633,366.703,645.722,368.794C641.811,370.886,637.932,372,627.233,372L30.7666,372C20.0684,372,16.189,370.886,12.2779,368.794C8.36674,366.703,5.29728,363.633,3.20559,359.722C1.11391,355.811,1.53528e-15,351.932,-2.64234e-15,341.233L-9.84996e-16,30.7666C5.72311e-16,20.0684,1.11391,16.189,3.20559,12.2779C5.29728,8.36674,8.36674,5.29728,12.2779,3.20559C16.189,1.11391,20.0684,1.77602e-15,30.7666,-3.05668e-15Z" fill="#FFFFFF" fill-opacity="1"/></g><g><path d="M34.19678109375,103.90512935546874C34.19678109375,102.93898935546875,34.96696109375,102.36476935546875,36.10172109375,102.28273935546875L36.10172109375,105.49562935546875C34.81201109375,105.20395935546875,34.19678109375,104.79835935546875,34.19678109375,103.90512935546874ZM38.98649109375,108.58546935546875C38.98649109375,109.63364935546875,38.047691093750004,110.27623935546875,36.92659109375,110.37643935546875L36.92659109375,106.92205935546875C38.27099109375,107.24562935546875,38.98649109375,107.56463935546876,38.98649109375,108.58546935546875ZM36.92659109375,112.91033935546875L36.92659109375,111.45203935546876C38.85889109375,111.34263935546875,40.31266109375,110.29443935546875,40.31266109375,108.53077935546875C40.31266109375,106.56202935546875,38.84521109375,106.05616935546875,36.92659109375,105.66424935546875L36.92659109375,102.29640935546875C38.02034109375,102.42400935546875,38.66292109375,102.96632935546874,38.77230109375,103.86411935546874L40.08935109375,103.86411935546874C39.87972109375,102.33741935546875,38.88623109375,101.38494935546875,36.92659109375,101.24366935546875L36.92659109375,100.22283935546875L36.10172109375,100.22283935546875L36.10172109375,101.24366935546875C34.21045109375,101.33025935546875,32.92073609375,102.32374935546875,32.92073609375,103.97348935546874C32.92073609375,105.84653935546875,34.27881109375,106.33416935546875,36.10172109375,106.73976935546875L36.10172109375,110.36283935546875C34.60238109375,110.22153935546875,33.95980109375,109.43767935546875,33.81852109375,108.22543935546875L32.47412109375,108.22543935546875C32.56982419375,109.78858935546874,33.60889109375,111.28793935546875,36.10172109375,111.45203935546876L36.10172109375,112.91033935546875L36.92659109375,112.91033935546875ZM45.42142109375,111.74363935546874C47.45392109375,111.74363935546874,49.03532109375,110.66813935546875,49.03532109375,108.67661935546874C49.03532109375,107.35955935546875,48.42012109375,106.46176935546875,47.03012109375,106.09718935546874L47.03012109375,106.05616935546875C48.00992109375,105.73260935546875,48.684421093750004,105.09002935546874,48.684421093750004,103.97804935546876C48.684421093750004,102.26905935546876,47.19872109375,101.24366935546875,45.32572109375,101.24366935546875C43.09712109375,101.24366935546875,41.766441093750004,102.57439935546876,41.75277109375,104.43832935546875L43.05612109375,104.43832935546875C43.06982109375,103.19874935546875,43.88102109375,102.29640935546875,45.28012109375,102.29640935546875C46.44222109375,102.29640935546875,47.36732109375,102.92075935546875,47.36732109375,103.96437935546875C47.36732109375,104.99431935546875,46.59712109375,105.61866935546875,45.11602109375,105.61866935546875L44.49622109375,105.61866935546875L44.49622109375,106.65773935546875L45.12972109375,106.65773935546875C46.73842109375,106.65773935546875,47.64992109375,107.31398935546875,47.64992109375,108.56267935546875C47.64992109375,109.95265935546875,46.71112109375,110.64083935546876,45.38032109375,110.64083935546876C43.77162109375,110.64083935546876,42.79182109375,109.73845935546875,42.74622109375,108.23455935546875L41.433751093750004,108.23455935546875C41.44743109375,109.36476935546875,41.88037109375,110.25343935546874,42.609521093750004,110.85043935546875C43.32052109375,111.43833935546876,44.30032109375,111.74363935546874,45.42142109375,111.74363935546874ZM54.162321093749995,111.74363935546874C56.66882109375,111.74363935546874,58.09522109375,109.69288935546875,58.09522109375,106.48911935546874C58.09522109375,103.21241935546875,56.56852109375,101.24366935546875,54.17592109375,101.24366935546875C51.79252109375,101.24366935546875,50.23842109375,103.23976935546875,50.23842109375,106.48911935546874C50.23842109375,109.69288935546875,51.69682109375,111.74363935546874,54.162321093749995,111.74363935546874ZM54.17592109375,110.59983935546875C52.46692109375,110.59983935546875,51.623821093749996,108.98650935546875,51.623821093749996,106.48911935546874C51.623821093749996,103.95981935546875,52.46692109375,102.37843935546876,54.17592109375,102.37843935546876C55.86672109375,102.37843935546876,56.69612109375,103.98715935546875,56.69612109375,106.48911935546874C56.69612109375,109.03207935546875,55.912321093749995,110.59983935546875,54.17592109375,110.59983935546875ZM63.49562109375,111.74363935546874C66.00212109374999,111.74363935546874,67.42852109374999,109.69288935546875,67.42852109374999,106.48911935546874C67.42852109374999,103.21241935546875,65.90182109375,101.24366935546875,63.50932109375,101.24366935546875C61.125821093750005,101.24366935546875,59.57182109375,103.23976935546875,59.57182109375,106.48911935546874C59.57182109375,109.69288935546875,61.03012109375,111.74363935546874,63.49562109375,111.74363935546874ZM63.50932109375,110.59983935546875C61.80032109375,110.59983935546875,60.95722109375,108.98650935546875,60.95722109375,106.48911935546874C60.95722109375,103.95981935546875,61.80032109375,102.37843935546876,63.50932109375,102.37843935546876C65.20002109375,102.37843935546876,66.02942109375,103.98715935546875,66.02942109375,106.48911935546874C66.02942109375,109.03207935546875,65.24562109375,110.59983935546875,63.50932109375,110.59983935546875ZM72.82892109375,111.74363935546874C75.33542109375,111.74363935546874,76.76192109375,109.69288935546875,76.76192109375,106.48911935546874C76.76192109375,103.21241935546875,75.23522109375,101.24366935546875,72.84262109375,101.24366935546875C70.45912109375,101.24366935546875,68.90512109375,103.23976935546875,68.90512109375,106.48911935546874C68.90512109375,109.69288935546875,70.36342109374999,111.74363935546874,72.82892109375,111.74363935546874ZM72.84262109375,110.59983935546875C71.13362109375001,110.59983935546875,70.29052109375,108.98650935546875,70.29052109375,106.48911935546874C70.29052109375,103.95981935546875,71.13362109375001,102.37843935546876,72.84262109375,102.37843935546876C74.53332109375,102.37843935546876,75.36282109375,103.98715935546875,75.36282109375,106.48911935546874C75.36282109375,109.03207935546875,74.57892109375,110.59983935546875,72.84262109375,110.59983935546875Z" fill="#909399" fill-opacity="1"/></g><g><path d="M34.19678109375,49.90512935546875C34.19678109375,48.93898935546875,34.96696109375,48.36476935546875,36.10172109375,48.28273935546875L36.10172109375,51.49562935546875C34.81201109375,51.20395935546875,34.19678109375,50.79835935546875,34.19678109375,49.90512935546875ZM38.98649109375,54.585469355468746C38.98649109375,55.63364935546875,38.047691093750004,56.276239355468746,36.92659109375,56.37643935546875L36.92659109375,52.92205935546875C38.27099109375,53.24562935546875,38.98649109375,53.56463935546875,38.98649109375,54.585469355468746ZM36.92659109375,58.91033935546875L36.92659109375,57.45203935546875C38.85889109375,57.34263935546875,40.31266109375,56.294439355468754,40.31266109375,54.53077935546875C40.31266109375,52.56202935546875,38.84521109375,52.056169355468754,36.92659109375,51.66424935546875L36.92659109375,48.296409355468754C38.02034109375,48.42400935546875,38.66292109375,48.96632935546875,38.77230109375,49.86411935546875L40.08935109375,49.86411935546875C39.87972109375,48.337419355468754,38.88623109375,47.38494935546875,36.92659109375,47.24366935546875L36.92659109375,46.22283935546875L36.10172109375,46.22283935546875L36.10172109375,47.24366935546875C34.21045109375,47.33025935546875,32.92073609375,48.32374935546875,32.92073609375,49.97348935546875C32.92073609375,51.84653935546875,34.27881109375,52.33416935546875,36.10172109375,52.73976935546875L36.10172109375,56.36283935546875C34.60238109375,56.22153935546875,33.95980109375,55.43767935546875,33.81852109375,54.22543935546875L32.47412109375,54.22543935546875C32.56982419375,55.78858935546875,33.60889109375,57.28793935546875,36.10172109375,57.45203935546875L36.10172109375,58.91033935546875L36.92659109375,58.91033935546875ZM42.71892109375,54.01124935546875L42.71892109375,53.983909355468754Q43.39342109375,53.22739935546875,43.78532109375,52.73064935546875L45.63102109375,50.34262935546875Q46.03662109375,49.81853935546875,46.50142109375,49.02101935546875L46.52882109375,49.02101935546875Q46.45592109375,49.97348935546875,46.45592109375,50.51580935546875L46.45592109375,53.952009355468746L44.20462109375,53.952009355468746Q43.63032109375,53.952009355468746,42.71892109375,54.01124935546875ZM49.399921093749995,55.00473935546875L49.399921093749995,53.952009355468746L47.77292109375,53.952009355468746L47.77292109375,47.24366935546875L46.67012109375,47.24366935546875L41.62972109375,53.79705935546875L41.62972109375,55.00473935546875L46.45592109375,55.00473935546875L46.45592109375,57.45203935546875L47.77292109375,57.45203935546875L47.77292109375,55.00473935546875L49.399921093749995,55.00473935546875ZM54.45392109375,57.74363935546875C56.96042109375,57.74363935546875,58.386921093750004,55.69288935546875,58.386921093750004,52.48911935546875C58.386921093750004,49.212419355468754,56.86022109375,47.24366935546875,54.46762109375,47.24366935546875C52.08412109375,47.24366935546875,50.53012109375,49.23976935546875,50.53012109375,52.48911935546875C50.53012109375,55.69288935546875,51.98842109375,57.74363935546875,54.45392109375,57.74363935546875ZM54.46762109375,56.59983935546875C52.75862109375,56.59983935546875,51.91552109375,54.98650935546875,51.91552109375,52.48911935546875C51.91552109375,49.95981935546875,52.75862109375,48.37843935546875,54.46762109375,48.37843935546875C56.158321093750004,48.37843935546875,56.98782109375,49.98715935546875,56.98782109375,52.48911935546875C56.98782109375,55.03207935546875,56.20392109375,56.59983935546875,54.46762109375,56.59983935546875ZM63.787321093749995,57.74363935546875C66.29382109375,57.74363935546875,67.72022109375,55.69288935546875,67.72022109375,52.48911935546875C67.72022109375,49.212419355468754,66.19352109375001,47.24366935546875,63.80092109375,47.24366935546875C61.41752109375,47.24366935546875,59.86342109375,49.23976935546875,59.86342109375,52.48911935546875C59.86342109375,55.69288935546875,61.32182109375,57.74363935546875,63.787321093749995,57.74363935546875ZM63.80092109375,56.59983935546875C62.09192109375,56.59983935546875,61.248821093749996,54.98650935546875,61.248821093749996,52.48911935546875C61.248821093749996,49.95981935546875,62.09192109375,48.37843935546875,63.80092109375,48.37843935546875C65.49172109375,48.37843935546875,66.32112109375001,49.98715935546875,66.32112109375001,52.48911935546875C66.32112109375001,55.03207935546875,65.53732109375,56.59983935546875,63.80092109375,56.59983935546875ZM73.12062109375,57.74363935546875C75.62712109374999,57.74363935546875,77.05352109374999,55.69288935546875,77.05352109374999,52.48911935546875C77.05352109374999,49.212419355468754,75.52682109375,47.24366935546875,73.13432109375,47.24366935546875C70.75082109375,47.24366935546875,69.19682109375,49.23976935546875,69.19682109375,52.48911935546875C69.19682109375,55.69288935546875,70.65512109375,57.74363935546875,73.12062109375,57.74363935546875ZM73.13432109375,56.59983935546875C71.42532109375,56.59983935546875,70.58222109375001,54.98650935546875,70.58222109375001,52.48911935546875C70.58222109375001,49.95981935546875,71.42532109375,48.37843935546875,73.13432109375,48.37843935546875C74.82502109375,48.37843935546875,75.65442109375,49.98715935546875,75.65442109375,52.48911935546875C75.65442109375,55.03207935546875,74.87062109375,56.59983935546875,73.13432109375,56.59983935546875Z" fill="#909399" fill-opacity="1"/></g><g><path d="M90,107L616,107L616,107.999649L90,107.999649L90,107Z" fill="#F8F8F8" fill-opacity="1"/></g><g><path d="M90,50L616,50L616,50.999645L90,50.999645L90,50Z" fill="#F8F8F8" fill-opacity="1"/></g><g><path d="M34.19678109375,163.90512935546874C34.19678109375,162.93898935546875,34.96696109375,162.36476935546875,36.10172109375,162.28273935546875L36.10172109375,165.49562935546874C34.81201109375,165.20395935546875,34.19678109375,164.79835935546876,34.19678109375,163.90512935546874ZM38.98649109375,168.58546935546875C38.98649109375,169.63364935546875,38.047691093750004,170.27623935546876,36.92659109375,170.37643935546876L36.92659109375,166.92205935546875C38.27099109375,167.24562935546874,38.98649109375,167.56463935546876,38.98649109375,168.58546935546875ZM36.92659109375,172.91033935546875L36.92659109375,171.45203935546874C38.85889109375,171.34263935546875,40.31266109375,170.29443935546874,40.31266109375,168.53077935546875C40.31266109375,166.56202935546875,38.84521109375,166.05616935546874,36.92659109375,165.66424935546874L36.92659109375,162.29640935546874C38.02034109375,162.42400935546874,38.66292109375,162.96632935546876,38.77230109375,163.86411935546874L40.08935109375,163.86411935546874C39.87972109375,162.33741935546874,38.88623109375,161.38494935546876,36.92659109375,161.24366935546874L36.92659109375,160.22283935546875L36.10172109375,160.22283935546875L36.10172109375,161.24366935546874C34.21045109375,161.33025935546874,32.92073609375,162.32374935546875,32.92073609375,163.97348935546876C32.92073609375,165.84653935546876,34.27881109375,166.33416935546876,36.10172109375,166.73976935546875L36.10172109375,170.36283935546874C34.60238109375,170.22153935546874,33.95980109375,169.43767935546876,33.81852109375,168.22543935546875L32.47412109375,168.22543935546875C32.56982419375,169.78858935546876,33.60889109375,171.28793935546875,36.10172109375,171.45203935546874L36.10172109375,172.91033935546875L36.92659109375,172.91033935546875ZM41.59782109375,171.45203935546874L48.602421093749996,171.45203935546874L48.602421093749996,170.20786935546874L43.25212109375,170.20786935546874L43.27942109375,170.09392935546876C43.67142109375,169.05942935546875,45.02942109375,168.29835935546876,46.06392109375,167.66944935546874C47.56332109375,166.81267935546876,48.78012109375,166.17010935546875,48.78012109375,164.31528935546876C48.78012109375,162.54705935546875,47.46762109375,161.24366935546874,45.42142109375,161.24366935546874C44.32762109375,161.24366935546874,43.37972109375,161.58090935546875,42.75992109375,162.24171935546875C42.15836109375,162.85694935546874,41.83935109375,163.65903935546876,41.83935109375,164.78012935546874L43.22482109375,164.78012935546874C43.22482109375,163.93702935546875,43.407021093750004,163.40382935546876,43.78532109375,162.98455935546875C44.16362109375,162.57895935546875,44.637521093749996,162.36476935546875,45.31202109375,162.36476935546875C46.58352109375,162.36476935546875,47.38102109375,163.16684935546874,47.38102109375,164.34262935546874C47.38102109375,165.49562935546874,46.65182109375,166.00148935546875,45.40772109375,166.71697935546874C44.45522109375,167.29119935546876,43.420721093750004,167.86541935546876,42.66422109375,168.70851935546875C42.06266109375,169.39666935546876,41.65706109375,170.24883935546876,41.59782109375,171.45203935546874ZM54.162321093749995,171.74363935546876C56.66882109375,171.74363935546876,58.09522109375,169.69288935546876,58.09522109375,166.48911935546874C58.09522109375,163.21241935546874,56.56852109375,161.24366935546874,54.17592109375,161.24366935546874C51.79252109375,161.24366935546874,50.23842109375,163.23976935546875,50.23842109375,166.48911935546874C50.23842109375,169.69288935546876,51.69682109375,171.74363935546876,54.162321093749995,171.74363935546876ZM54.17592109375,170.59983935546876C52.46692109375,170.59983935546876,51.623821093749996,168.98650935546874,51.623821093749996,166.48911935546874C51.623821093749996,163.95981935546874,52.46692109375,162.37843935546874,54.17592109375,162.37843935546874C55.86672109375,162.37843935546874,56.69612109375,163.98715935546875,56.69612109375,166.48911935546874C56.69612109375,169.03207935546874,55.912321093749995,170.59983935546876,54.17592109375,170.59983935546876ZM63.49562109375,171.74363935546876C66.00212109374999,171.74363935546876,67.42852109374999,169.69288935546876,67.42852109374999,166.48911935546874C67.42852109374999,163.21241935546874,65.90182109375,161.24366935546874,63.50932109375,161.24366935546874C61.125821093750005,161.24366935546874,59.57182109375,163.23976935546875,59.57182109375,166.48911935546874C59.57182109375,169.69288935546876,61.03012109375,171.74363935546876,63.49562109375,171.74363935546876ZM63.50932109375,170.59983935546876C61.80032109375,170.59983935546876,60.95722109375,168.98650935546874,60.95722109375,166.48911935546874C60.95722109375,163.95981935546874,61.80032109375,162.37843935546874,63.50932109375,162.37843935546874C65.20002109375,162.37843935546874,66.02942109375,163.98715935546875,66.02942109375,166.48911935546874C66.02942109375,169.03207935546874,65.24562109375,170.59983935546876,63.50932109375,170.59983935546876ZM72.82892109375,171.74363935546876C75.33542109375,171.74363935546876,76.76192109375,169.69288935546876,76.76192109375,166.48911935546874C76.76192109375,163.21241935546874,75.23522109375,161.24366935546874,72.84262109375,161.24366935546874C70.45912109375,161.24366935546874,68.90512109375,163.23976935546875,68.90512109375,166.48911935546874C68.90512109375,169.69288935546876,70.36342109374999,171.74363935546876,72.82892109375,171.74363935546876ZM72.84262109375,170.59983935546876C71.13362109375001,170.59983935546876,70.29052109375,168.98650935546874,70.29052109375,166.48911935546874C70.29052109375,163.95981935546874,71.13362109375001,162.37843935546874,72.84262109375,162.37843935546874C74.53332109375,162.37843935546874,75.36282109375,163.98715935546875,75.36282109375,166.48911935546874C75.36282109375,169.03207935546874,74.57892109375,170.59983935546876,72.84262109375,170.59983935546876Z" fill="#909399" fill-opacity="1"/></g><g><path d="M90,41L91,41L91,288L90,288L90,41Z" fill="#F8F8F8" fill-opacity="1"/></g><g><path d="M90,167L625,167L625,167.999649L90,167.999649L90,167Z" fill="#F8F8F8" fill-opacity="1"/></g><g><path d="M90,227L625,227L625,227.999649L90,227.999649L90,227Z" fill="#F8F8F8" fill-opacity="1"/></g><g><path d="M90,287L625,287L625,287.999634L90,287.999634L90,287Z" fill="#F8F8F8" fill-opacity="1"/></g><g><path d="M34.19678109375,223.905190390625C34.19678109375,222.939050390625,34.96696109375,222.364830390625,36.10172109375,222.282800390625L36.10172109375,225.495690390625C34.81201109375,225.204020390625,34.19678109375,224.798420390625,34.19678109375,223.905190390625ZM38.98649109375,228.585530390625C38.98649109375,229.633710390625,38.047691093750004,230.276300390625,36.92659109375,230.376500390625L36.92659109375,226.922120390625C38.27099109375,227.245690390625,38.98649109375,227.564700390625,38.98649109375,228.585530390625ZM36.92659109375,232.910400390625L36.92659109375,231.452100390625C38.85889109375,231.342700390625,40.31266109375,230.294500390625,40.31266109375,228.530840390625C40.31266109375,226.562090390625,38.84521109375,226.056230390625,36.92659109375,225.664310390625L36.92659109375,222.296470390625C38.02034109375,222.424070390625,38.66292109375,222.966390390625,38.77230109375,223.864180390625L40.08935109375,223.864180390625C39.87972109375,222.337480390625,38.88623109375,221.385010390625,36.92659109375,221.243730390625L36.92659109375,220.222900390625L36.10172109375,220.222900390625L36.10172109375,221.243730390625C34.21045109375,221.330320390625,32.92073609375,222.323810390625,32.92073609375,223.973550390625C32.92073609375,225.846600390625,34.27881109375,226.334230390625,36.10172109375,226.739830390625L36.10172109375,230.362900390625C34.60238109375,230.22160039062499,33.95980109375,229.437740390625,33.81852109375,228.225500390625L32.47412109375,228.225500390625C32.56982419375,229.788650390625,33.60889109375,231.288000390625,36.10172109375,231.452100390625L36.10172109375,232.910400390625L36.92659109375,232.910400390625ZM43.95392109375,231.452100390625L45.31202109375,231.452100390625L45.31202109375,221.535400390625L44.25932109375,221.535400390625C44.07702109375,223.039310390625,42.901221093749996,223.531490390625,41.64339109375,223.558840390625L41.64339109375,224.452070390625L43.95392109375,224.452070390625L43.95392109375,231.452100390625ZM51.24562109375,231.743700390625C53.75212109375,231.743700390625,55.17852109375,229.69295039062501,55.17852109375,226.489180390625C55.17852109375,223.212480390625,53.65182109375,221.243730390625,51.25932109375,221.243730390625C48.875821093750005,221.243730390625,47.32182109375,223.239830390625,47.32182109375,226.489180390625C47.32182109375,229.69295039062501,48.78012109375,231.743700390625,51.24562109375,231.743700390625ZM51.25932109375,230.599900390625C49.55032109375,230.599900390625,48.70722109375,228.986570390625,48.70722109375,226.489180390625C48.70722109375,223.959880390625,49.55032109375,222.378500390625,51.25932109375,222.378500390625C52.950021093749996,222.378500390625,53.77942109375,223.987220390625,53.77942109375,226.489180390625C53.77942109375,229.032140390625,52.99562109375,230.599900390625,51.25932109375,230.599900390625ZM60.57892109375,231.743700390625C63.08542109375,231.743700390625,64.51192109375,229.69295039062501,64.51192109375,226.489180390625C64.51192109375,223.212480390625,62.98522109375,221.243730390625,60.59262109375,221.243730390625C58.20912109375,221.243730390625,56.65512109375,223.239830390625,56.65512109375,226.489180390625C56.65512109375,229.69295039062501,58.11342109375,231.743700390625,60.57892109375,231.743700390625ZM60.59262109375,230.599900390625C58.88362109375,230.599900390625,58.04052109375,228.986570390625,58.04052109375,226.489180390625C58.04052109375,223.959880390625,58.88362109375,222.378500390625,60.59262109375,222.378500390625C62.283321093750004,222.378500390625,63.11282109375,223.987220390625,63.11282109375,226.489180390625C63.11282109375,229.032140390625,62.32892109375,230.599900390625,60.59262109375,230.599900390625ZM69.91222109374999,231.743700390625C72.41882109375,231.743700390625,73.84522109375,229.69295039062501,73.84522109375,226.489180390625C73.84522109375,223.212480390625,72.31852109375001,221.243730390625,69.92592109374999,221.243730390625C67.54252109375,221.243730390625,65.98842109374999,223.239830390625,65.98842109374999,226.489180390625C65.98842109374999,229.69295039062501,67.44682109375,231.743700390625,69.91222109374999,231.743700390625ZM69.92592109374999,230.599900390625C68.21692109375,230.599900390625,67.37382109375,228.986570390625,67.37382109375,226.489180390625C67.37382109375,223.959880390625,68.21692109375,222.378500390625,69.92592109374999,222.378500390625C71.61672109375,222.378500390625,72.44612109375001,223.987220390625,72.44612109375001,226.489180390625C72.44612109375001,229.032140390625,71.66222109374999,230.599900390625,69.92592109374999,230.599900390625Z" fill="#909399" fill-opacity="1"/></g><g><path d="M57.19678109375,283.905190390625C57.19678109375,282.939050390625,57.96696109375,282.364830390625,59.10172109375,282.282800390625L59.10172109375,285.495690390625C57.81201109375,285.204020390625,57.19678109375,284.798420390625,57.19678109375,283.905190390625ZM61.98649109375,288.585530390625C61.98649109375,289.633710390625,61.047691093750004,290.276300390625,59.92659109375,290.376500390625L59.92659109375,286.922120390625C61.27099109375,287.245690390625,61.98649109375,287.564700390625,61.98649109375,288.585530390625ZM59.92659109375,292.910400390625L59.92659109375,291.452100390625C61.85889109375,291.342700390625,63.31266109375,290.294500390625,63.31266109375,288.530840390625C63.31266109375,286.562090390625,61.84521109375,286.056230390625,59.92659109375,285.664310390625L59.92659109375,282.296470390625C61.02034109375,282.424070390625,61.66292109375,282.966390390625,61.77230109375,283.864180390625L63.08935109375,283.864180390625C62.87972109375,282.337480390625,61.88623109375,281.385010390625,59.92659109375,281.243730390625L59.92659109375,280.222900390625L59.10172109375,280.222900390625L59.10172109375,281.243730390625C57.21045109375,281.330320390625,55.92073609375,282.323810390625,55.92073609375,283.973550390625C55.92073609375,285.846600390625,57.27881109375,286.334230390625,59.10172109375,286.739830390625L59.10172109375,290.362900390625C57.60238109375,290.221600390625,56.95980109375,289.437740390625,56.81852109375,288.225500390625L55.47412109375,288.225500390625C55.56982419375,289.788650390625,56.60889109375,291.288000390625,59.10172109375,291.452100390625L59.10172109375,292.910400390625L59.92659109375,292.910400390625ZM68.70392109375,291.743700390625C71.21042109375,291.743700390625,72.63692109375,289.692950390625,72.63692109375,286.489180390625C72.63692109375,283.212480390625,71.11022109375,281.243730390625,68.71762109375,281.243730390625C66.33412109375,281.243730390625,64.78011109375,283.239830390625,64.78011109375,286.489180390625C64.78011109375,289.692950390625,66.23842109375,291.743700390625,68.70392109375,291.743700390625ZM68.71762109375,290.599900390625C67.00862109375,290.599900390625,66.16552109375,288.986570390625,66.16552109375,286.489180390625C66.16552109375,283.959880390625,67.00862109375,282.378500390625,68.71762109375,282.378500390625C70.40832109375,282.378500390625,71.23782109375,283.987220390625,71.23782109375,286.489180390625C71.23782109375,289.032140390625,70.45392109375,290.599900390625,68.71762109375,290.599900390625Z" fill="#909399" fill-opacity="1"/></g><g><path d="M115.677080625,315.01122921875L115.677080625,314.98388921875Q116.351560625,314.22737921875,116.743490625,313.73062921875L118.589190625,311.34260921875Q118.99479062500001,310.81851921875,119.459630625,310.02099921875L119.486980625,310.02099921875Q119.414060625,310.97346921875,119.414060625,311.51578921875L119.414060625,314.95198921875L117.162760625,314.95198921875Q116.588540625,314.95198921875,115.677080625,315.01122921875ZM122.358070625,316.00471921875L122.358070625,314.95198921875L120.731120625,314.95198921875L120.731120625,308.24365221875L119.62825062499999,308.24365221875L114.587890625,314.79703921875L114.587890625,316.00471921875L119.414060625,316.00471921875L119.414060625,318.45199921875L120.731120625,318.45199921875L120.731120625,316.00471921875L122.358070625,316.00471921875ZM122.426430625,320.20199921875L123.729820625,320.20199921875L128.797490625,307.49169921875L127.480490625,307.49169921875L122.426430625,320.20199921875ZM132.949190625,318.74369921875C135.018190625,318.74369921875,136.558590625,317.41291921875,136.558590625,315.25731921875C136.558590625,313.03791921875,134.963590625,311.78010921875,133.281890625,311.78010921875C132.261090625,311.78010921875,131.531890625,312.09911921875,130.971390625,312.67333921875L130.943990625,312.67333921875L131.591190625,309.71565921875L135.956990625,309.71565921875L135.956990625,308.53531921875L130.638690625,308.53531921875L129.558590625,313.78531921875L130.848290625,313.78531921875C131.226590625,313.36604921875,131.923790625,312.91031921875,133.031290625,312.91031921875C134.220690625,312.91031921875,135.186890625,313.77164921875,135.186890625,315.22541921875C135.186890625,316.65185921875,134.307290625,317.58609921875,132.917290625,317.58609921875C131.559290625,317.58609921875,130.861990625,316.86604921875,130.652390625,315.84976921875L129.321590625,315.84976921875C129.444690625,317.47216921875,130.848290625,318.74369921875,132.949190625,318.74369921875Z" fill="#909399" fill-opacity="1"/></g><g><path d="M206.677080625,315.01122921875L206.677080625,314.98388921875Q207.351560625,314.22737921875,207.743490625,313.73062921875L209.589190625,311.34260921875Q209.994790625,310.81851921875,210.459630625,310.02099921875L210.486980625,310.02099921875Q210.414060625,310.97346921875,210.414060625,311.51578921875L210.414060625,314.95198921875L208.162760625,314.95198921875Q207.588540625,314.95198921875,206.677080625,315.01122921875ZM213.358070625,316.00471921875L213.358070625,314.95198921875L211.731120625,314.95198921875L211.731120625,308.24365221875L210.628250625,308.24365221875L205.587890625,314.79703921875L205.587890625,316.00471921875L210.414060625,316.00471921875L210.414060625,318.45199921875L211.731120625,318.45199921875L211.731120625,316.00471921875L213.358070625,316.00471921875ZM213.426430625,320.20199921875L214.729820625,320.20199921875L219.797490625,307.49169921875L218.480490625,307.49169921875L213.426430625,320.20199921875ZM224.550790625,318.74369921875C226.469390625,318.74369921875,227.991490625,317.19416921875,227.977890625,315.24820921875C227.96419062500001,313.32958921875,226.496790625,311.82112921875,224.66019062499998,311.82112921875C223.456990625,311.82112921875,222.572890625,312.29508921875,221.916690625,313.40250921875L221.889290625,313.40250921875C221.957690625,310.82307921875,222.673190625,309.35107921875,224.550790625,309.35107921875C225.667290625,309.35107921875,226.273390625,310.10302921875,226.369090625,310.76838921875L227.699890625,310.76838921875C227.517590625,309.56981921875,226.52409062499999,308.24365221875,224.518890625,308.24365221875C223.233690625,308.24365221875,222.267590625,308.74950921875,221.606790625,309.63817921875C220.950490625,310.52685921875,220.613290625,311.79377921875,220.613290625,313.35692921875C220.613290625,315.42138921875,220.96419062500001,316.81591921875,221.998690625,317.79569921875C222.604790625,318.38359921875,223.429690625,318.74369921875,224.550790625,318.74369921875ZM224.518890625,317.66809921875C223.178990625,317.66809921875,222.139990625,316.68830921875,222.139990625,315.27554921875C222.139990625,313.84911921875,223.092490625,312.91031921875,224.477890625,312.91031921875C225.753890625,312.91031921875,226.720090625,313.87646921875,226.720090625,315.28922921875C226.720090625,316.70198921875,225.781290625,317.66809921875,224.518890625,317.66809921875Z" fill="#909399" fill-opacity="1"/></g><g><path d="M298.677080625,315.01122921875L298.677080625,314.98388921875Q299.351560625,314.22737921875,299.743490625,313.73062921875L301.589190625,311.34260921875Q301.994790625,310.81851921875,302.459630625,310.02099921875L302.486980625,310.02099921875Q302.414060625,310.97346921875,302.414060625,311.51578921875L302.414060625,314.95198921875L300.162760625,314.95198921875Q299.588540625,314.95198921875,298.677080625,315.01122921875ZM305.358070625,316.00471921875L305.358070625,314.95198921875L303.731120625,314.95198921875L303.731120625,308.24365221875L302.628250625,308.24365221875L297.587890625,314.79703921875L297.587890625,316.00471921875L302.414060625,316.00471921875L302.414060625,318.45199921875L303.731120625,318.45199921875L303.731120625,316.00471921875L305.358070625,316.00471921875ZM305.426430625,320.20199921875L306.729820625,320.20199921875L311.797490625,307.49169921875L310.480490625,307.49169921875L305.426430625,320.20199921875ZM313.734390625,318.45199921875L315.160790625,318.45199921875C315.356790625,314.57372921875,317.320990625,311.39729921875,319.33529062499997,309.61539921875L319.33529062499997,308.53531921875L312.321590625,308.53531921875L312.321590625,309.72932921875L316.199890625,309.72932921875Q317.248090625,309.72932921875,318.031890625,309.67008921875L318.031890625,309.69742921875C315.780590625,311.51122921875,313.943990625,314.97476921875,313.734390625,318.45199921875Z" fill="#909399" fill-opacity="1"/></g><g><path d="M388.677080625,315.01122921875L388.677080625,314.98388921875Q389.351560625,314.22737921875,389.743490625,313.73062921875L391.589190625,311.34260921875Q391.994790625,310.81851921875,392.459630625,310.02099921875L392.486980625,310.02099921875Q392.414060625,310.97346921875,392.414060625,311.51578921875L392.414060625,314.95198921875L390.162760625,314.95198921875Q389.588540625,314.95198921875,388.677080625,315.01122921875ZM395.358070625,316.00471921875L395.358070625,314.95198921875L393.731120625,314.95198921875L393.731120625,308.24365221875L392.628250625,308.24365221875L387.587890625,314.79703921875L387.587890625,316.00471921875L392.414060625,316.00471921875L392.414060625,318.45199921875L393.731120625,318.45199921875L393.731120625,316.00471921875L395.358070625,316.00471921875ZM395.426430625,320.20199921875L396.729820625,320.20199921875L401.797490625,307.49169921875L400.480490625,307.49169921875L395.426430625,320.20199921875ZM406.309290625,318.74369921875C408.214190625,318.74369921875,410.078090625,317.89139921875,410.078090625,315.61734921875C410.078090625,314.24104921875,409.207690625,313.29768921875,407.936190625,312.97867921875L407.936190625,312.93765921875C408.998090625,312.60041921875,409.599590625,311.85302921875,409.599590625,310.84586921875C409.599590625,309.26903921875,408.159490625,308.24365221875,406.268190625,308.24365221875C404.395190625,308.24365221875,402.950490625,309.28271921875,402.950490625,310.85953921875C402.950490625,311.86669921875,403.552090625,312.61409921875,404.632190625,312.93765921875L404.632190625,312.97867921875C403.356090625,313.32958921875,402.444690625,314.16812921875,402.444690625,315.61734921875C402.444690625,317.87779921875,404.408890625,318.74369921875,406.309290625,318.74369921875ZM406.268190625,312.47281921875C405.024090625,312.47281921875,404.253890625,311.88036921875,404.253890625,310.90054921875C404.253890625,309.91617921875,405.024090625,309.33739921875,406.268190625,309.33739921875C407.516890625,309.33739921875,408.287090625,309.91617921875,408.287090625,310.90054921875C408.287090625,311.88036921875,407.516890625,312.47281921875,406.268190625,312.47281921875ZM406.309290625,317.64079921875C404.755190625,317.64079921875,403.834590625,316.89338921875,403.834590625,315.60367921875C403.834590625,314.31396921875,404.741490625,313.49364921875,406.268190625,313.49364921875C407.808590625,313.49364921875,408.733690625,314.31396921875,408.733690625,315.60367921875C408.733690625,316.87971921875,407.808590625,317.64079921875,406.309290625,317.64079921875Z" fill="#909399" fill-opacity="1"/></g><g><path d="M480.677080625,315.01122921875L480.677080625,314.98388921875Q481.351560625,314.22737921875,481.743490625,313.73062921875L483.589190625,311.34260921875Q483.994790625,310.81851921875,484.459630625,310.02099921875L484.486980625,310.02099921875Q484.414060625,310.97346921875,484.414060625,311.51578921875L484.414060625,314.95198921875L482.162760625,314.95198921875Q481.588540625,314.95198921875,480.677080625,315.01122921875ZM487.358070625,316.00471921875L487.358070625,314.95198921875L485.731120625,314.95198921875L485.731120625,308.24365221875L484.628250625,308.24365221875L479.587890625,314.79703921875L479.587890625,316.00471921875L484.414060625,316.00471921875L484.414060625,318.45199921875L485.731120625,318.45199921875L485.731120625,316.00471921875L487.358070625,316.00471921875ZM487.426430625,320.20199921875L488.729820625,320.20199921875L493.797490625,307.49169921875L492.480490625,307.49169921875L487.426430625,320.20199921875ZM498.072290625,314.07698921875C496.814490625,314.07698921875,495.802690625,313.08804921875,495.802690625,311.69351921875C495.802690625,310.28531921875,496.741490625,309.32372921875,498.085890625,309.32372921875C499.40299062500003,309.32372921875,500.451190625,310.28531921875,500.451190625,311.69351921875C500.451190625,313.10172921875,499.530590625,314.07698921875,498.072290625,314.07698921875ZM498.145190625,318.74369921875C499.138690625,318.74369921875,499.963590625,318.45199921875,500.565090625,317.89139921875C501.531290625,317.03466921875,501.936890625,315.59455921875,501.936890625,313.60302921875C501.936890625,311.36539921875,501.572290625,309.89794921875,500.437490625,309.01383921875C499.849590625,308.56721921875,499.079390625,308.24365221875,498.085890625,308.24365221875C496.044290625,308.24365221875,494.531290625,309.78401921875,494.544890625,311.72541921875C494.558590625,313.64859921875,496.044290625,315.17073921875,497.889990625,315.17073921875C499.065790625,315.17073921875,499.990890625,314.63752921875,500.633490625,313.74885921875L500.665390625,313.74885921875C500.606090625,315.32112921875,500.355490625,316.36474921875,499.781290625,316.97997921875C499.389290625,317.42203921875,498.856090625,317.64079921875,498.113290625,317.64079921875C496.841790625,317.64079921875,496.167290625,316.89794921875,496.044290625,316.09130921875L494.686190625,316.09130921875C494.809290625,317.53139921875,496.167290625,318.74369921875,498.145190625,318.74369921875Z" fill="#909399" fill-opacity="1"/></g><g><path d="M572.677080625,315.01122921875L572.677080625,314.98388921875Q573.351560625,314.22737921875,573.743490625,313.73062921875L575.589190625,311.34260921875Q575.994790625,310.81851921875,576.459630625,310.02099921875L576.486980625,310.02099921875Q576.414060625,310.97346921875,576.414060625,311.51578921875L576.414060625,314.95198921875L574.162760625,314.95198921875Q573.588540625,314.95198921875,572.677080625,315.01122921875ZM579.358070625,316.00471921875L579.358070625,314.95198921875L577.731120625,314.95198921875L577.731120625,308.24365221875L576.628250625,308.24365221875L571.587890625,314.79703921875L571.587890625,316.00471921875L576.414060625,316.00471921875L576.414060625,318.45199921875L577.731120625,318.45199921875L577.731120625,316.00471921875L579.358070625,316.00471921875ZM579.426430625,320.20199921875L580.729820625,320.20199921875L585.797490625,307.49169921875L584.480490625,307.49169921875L579.426430625,320.20199921875ZM588.787090625,318.45199921875L590.145190625,318.45199921875L590.145190625,308.53531921875L589.092490625,308.53531921875C588.910190625,310.03922921875,587.734390625,310.53140921875,586.476590625,310.55875921875L586.476590625,311.45198921875L588.787090625,311.45198921875L588.787090625,318.45199921875ZM596.078790625,318.74369921875C598.585290625,318.74369921875,600.011690625,316.69286921875,600.011690625,313.48909921875C600.011690625,310.21239921875,598.484990625,308.24365221875,596.092490625,308.24365221875C593.708990625,308.24365221875,592.154990625,310.23974921875,592.154990625,313.48909921875C592.154990625,316.69286921875,593.613290625,318.74369921875,596.078790625,318.74369921875ZM596.092490625,317.59979921875C594.383490625,317.59979921875,593.540390625,315.98648921875,593.540390625,313.48909921875C593.540390625,310.95979921875,594.383490625,309.37841921875,596.092490625,309.37841921875C597.783190625,309.37841921875,598.612590625,310.98713921875,598.612590625,313.48909921875C598.612590625,316.03205921875,597.828790625,317.59979921875,596.092490625,317.59979921875Z" fill="#909399" fill-opacity="1"/></g><g mask="url(#master_svg0_1015_1100)"><g><g><g style="opacity:0.20000000298023224;"><path d="M43.55555534362793,330L110.58535534362792,284.3958L187.27655534362793,298.0348L310.22855534362793,251.904L480.1375553436279,290.1823L593.6815553436279,231.0891L784.731555343628,217.436671L905.8395553436279,272.1789L1106.515555343628,217.00000000000026L1106.515555343628,330L43.55555534362793,330Z" fill="url(#master_svg1_1015_1206)" fill-opacity="1"/></g><g><path d="M1106.9118517017364,219.44809L906.8688517017365,274.1687Q906.6168517017364,274.2377,906.3558517017365,274.2173Q906.0958517017365,274.1969,905.8568517017364,274.0895L784.8548517017365,219.58654L594.6818517017365,233.5358L482.0718517017365,284.4604Q481.86385170173645,284.5547,481.6368517017365,284.5825Q481.40885170173647,284.6103,481.18385170173644,284.5691L311.30585170173646,253.4803L188.73485170173646,293.8358Q188.43685170173646,293.9337,188.12585170173645,293.9045L112.20775170173646,286.7914L45.71193970173645,333.229L45.71068570173645,333.23Q45.53141070173645,333.355,45.323853701736454,333.424Q45.11629670173645,333.493,44.89773440173645,333.499Q44.87478410173645,333.5,44.85182296823645,333.5Q44.67073670173645,333.5,44.49485270173645,333.457Q44.31896770173645,333.414,44.15839270173645,333.33Q43.99781770173645,333.246,43.86177770173645,333.127Q43.72574170173645,333.007,43.62205170173645,332.859Q43.49424170173645,332.676,43.42526170173645,332.46299999999997Q43.35628170173645,332.251,43.35211170173645,332.028Q43.35185170173645,332.014,43.35185170173645,332Q43.35185170173645,331.868,43.37496170173645,331.738Q43.40080170173645,331.592,43.454521701736454,331.455Q43.50823170173645,331.317,43.58777170173645,331.192Q43.66730170173645,331.068,43.76960170173645,330.961Q43.87189270173645,330.855,43.99301670173645,330.77L43.99427270173645,330.769L110.94105170173646,284.0168Q111.15945170173644,283.8643,111.41705170173645,283.7963Q111.67465170173645,283.7283,111.93985170173644,283.7531L188.09385170173644,290.8884L310.73085170173647,250.5112Q311.09385170173647,250.39170000000001,311.46985170173645,250.4605L481.26285170173645,281.5337L593.6888517017364,230.6925Q593.9308517017364,230.5828,594.1968517017365,230.5633L785.0138517017365,216.56677Q785.3928517017365,216.53896,785.7398517017365,216.69509L906.5978517017364,271.1327L1106.1218517017364,216.55442L1106.1218517017364,216.55316Q1106.3218517017365,216.5,1106.5218517017365,216.5Q1106.8818517017364,216.49999,1107.2118517017364,216.66756Q1107.2318517017366,216.68177,1107.2618517017365,216.69709Q1107.4318517017364,216.79692,1107.5818517017365,216.93934Q1107.8618517017364,217.220566,1107.9618517017364,217.60422Q1108.0218517017365,217.79854,1108.0218517017365,218Q1108.0218517017365,218.137624,1107.9918517017366,218.272951Q1107.9718517017363,218.388866,1107.9318517017364,218.500006Q1107.8718517017364,218.669129,1107.7718517017365,218.819383Q1107.6818517017364,218.969637,1107.5418517017365,219.09255Q1107.4118517017364,219.21546,1107.2618517017365,219.30409Q1107.1018517017365,219.39273,1106.9318517017364,219.44209Q1106.9218517017364,219.44452,1106.9118517017364,219.44684L1106.9118517017364,219.44809Z" fill-rule="evenodd" fill="url(#master_svg2_1015_1207)" fill-opacity="1"/></g><g style="opacity:0.5;"><path d="M473.92591667175293,294L475.2222166717529,294L475.2222166717529,364L473.92591667175293,364L473.92591667175293,294Z" fill="#F25430" fill-opacity="1"/></g></g></g></g></g></svg>